{"title":"Dolphin Tale 2 2014 HC HDRIP XVID AC3 ACAB","uid":11113707,"size":1501577112,"categoryP":"video","categoryS":"other","magnet":"?xt=urn:btih:44514e10edc184073b6cb986027e783acc88c314&amp;dn=Dolphin+Tale+2+2014+HC+HDRIP+XVID+AC3+ACAB&amp;tr=udp%3A%2F%2Ftracker.openbittorrent.com%3A80&amp;tr=udp%3A%2F%2Fopen.demonii.com%3A1337&amp;tr=udp%3A%2F%2Ftracker.coppersurfer.tk%3A6969&amp;tr=udp%3A%2F%2Fexodus.desync.com%3A6969","seeders":0,"leechers":1,"uploader":"jacks66","files":-1,"time":1411838594,"description":"Dolphin Tale 2 2014 HC HDRIP XVID AC3 ACAB\n &lt;a href=&quot;\nhttp://www.imdb.com/title/tt2978462/&quot; rel=&quot;nofollow&quot; target=&quot;_NEW&quot;&gt;\nhttp://www.imdb.com/title/tt2978462/&lt;/a&gt;\n\n\nThe team of people who saved Winter's life reassemble in the wake of her surrogate mother's passing in order to find her a companion so she can remain at the Clearwater Marine Hospital.\n\nDirector: Charles Martin Smith\nWriters: Charles Martin Smith, Karen Janszen (characters)\nStars: Morgan Freeman, Ashley Judd, Nathan Gamble\nGenres: Drama, Family\nCountry: USA\nLanguage: English\n\n\nNotes:\nHas Hardcoded Chinese Subs\n\nFormat : AVI\nFormat/Info : Audio Video Interleave\nFile size : 1.38 GiB\nDuration : 1h 47mn\nOverall bit rate : 1 842 Kbps\nWriting library : VirtualDub build 30091/release\n\nVideo\nID : 0\nFormat : MPEG-4 Visual\nFormat profile : Advanced Simple@L5\nFormat settings, BVOP : 2\nFormat settings, QPel : No\nFormat settings, GMC : No warppoints\nFormat settings, Matrix : Default (H.263)\nMuxing mode : Packed bitstream\nCodec ID : XVID\nCodec ID/Hint : XviD\nDuration : 1h 47mn\nBit rate : 1 449 Kbps\nWidth : 720 pixels\nHeight : 400 pixels\nDisplay aspect ratio : 16:9\nFrame rate : 24.000 fps\nColor space : YUV\nChroma subsampling : 4:2:0\nBit depth : 8 bits\nScan type : Progressive\nCompression mode : Lossy\nBits/(Pixel*Frame) : 0.210\nStream size : 1.08 GiB (79%)\nWriting library : XviD 65\n\nAudio\nID : 1\nFormat : AC-3\nFormat/Info : Audio Coding 3\nMode extension : CM (complete main)\nFormat settings, Endianness : Big\nCodec ID : 2000\nDuration : 1h 47mn\nBit rate mode : Constant\nBit rate : 384 Kbps\nChannel count : 2 channels\nChannel positions : Front: L R\nSampling rate : 48.0 KHz\nBit depth : 16 bits\nCompression mode : Lossy\nStream size : 294 MiB (21%)\nAlignment : Aligned on interleaves\nInterleave, duration : 42 ms (1.00 video frame)\nInterleave, preload duration : 512 ms\n\nScreens:\n &lt;a href=&quot;\nhttp://imgsleek.com/img-5426d558e9a4f.html&quot; rel=&quot;nofollow&quot; target=&quot;_NEW&quot;&gt;\nhttp://imgsleek.com/img-5426d558e9a4f.html&lt;/a&gt;\n &lt;a href=&quot;\nhttp://imgsleek.com/img-5426d558f2849.html&quot; rel=&quot;nofollow&quot; target=&quot;_NEW&quot;&gt;\nhttp://imgsleek.com/img-5426d558f2849.html&lt;/a&gt;\n &lt;a href=&quot;\nhttp://imgsleek.com/img-5426d55905110.html&quot; rel=&quot;nofollow&quot; target=&quot;_NEW&quot;&gt;\nhttp://imgsleek.com/img-5426d55905110.html&lt;/a&gt;\n &lt;a href=&quot;\nhttp://imgsleek.com/img-5426d5590be98.html&quot; rel=&quot;nofollow&quot; target=&quot;_NEW&quot;&gt;\nhttp://imgsleek.com/img-5426d5590be98.html&lt;/a&gt;\n","torrent":{"xt":"urn:btih:44514e10edc184073b6cb986027e783acc88c314","amp;dn":"Dolphin+Tale+2+2014+HC+HDRIP+XVID+AC3+ACAB","amp;tr":["udp%3A%2F%2Ftracker.openbittorrent.com%3A80","udp%3A%2F%2Fopen.demonii.com%3A1337","udp%3A%2F%2Ftracker.coppersurfer.tk%3A6969","udp%3A%2F%2Fexodus.desync.com%3A6969"],"infoHash":"44514e10edc184073b6cb986027e783acc88c314","infoHashBuffer":{"type":"Buffer","data":[68,81,78,16,237,193,132,7,59,108,185,134,2,126,120,58,204,136,195,20]},"announce":[],"urlList":[]}}